# xmcd
#
# Track frame offsets:
#  150
#  14450
#  28700
#
# Disc length: 1036 seconds
#
# Revision: 0
# Processed by: cddbd v1.5.1PL2 Copyright (c) Steve Scherf et al.
# Submitted via: Collectorz.com_Music_Collector 6.9
#
DISCID=1b040a03
DTITLE=Jennifer Lopez - Jenny From the Block
DYEAR=2002
DGENRE=
TTITLE0=Jenny From the Block (Re-Mix)
TTITLE1=Jenny From the Block (Instrumental)
TTITLE2=Jenny From the Block (Club Mix)
EXTD=
EXTT0=
EXTT1=
EXTT2=
PLAYORDER=
